<?xml version="1.0" encoding="utf-8" standalone="no"?>
<!DOCTYPE svg PUBLIC "-//W3C//DTD SVG 1.1//EN"
  "http://www.w3.org/Graphics/SVG/1.1/DTD/svg11.dtd">
<!-- Created with matplotlib (http://matplotlib.org/) -->
<svg height="288pt" version="1.1" viewBox="0 0 288 288" width="288pt" xmlns="http://www.w3.org/2000/svg" xmlns:xlink="http://www.w3.org/1999/xlink">
 <defs>
  <style type="text/css">
*{stroke-linecap:butt;stroke-linejoin:round;}
  </style>
 </defs>
 <g id="figure_1">
  <g id="patch_1">
   <path d="
M0 288
L288 288
L288 0
L0 0
z
" style="fill:#ffffff;"/>
  </g>
  <g id="axes_1">
   <g id="LineCollection_1">
    <defs>
     <path d="
M63.9 -63.9
L63.9 -119.7" id="C0_0_c79e74e1be"/>
     <path d="
M63.9 -119.7
L119.7 -119.7" id="C0_1_ecfe47e6db"/>
     <path d="
M231.3 -119.7
L175.5 -119.7" id="C0_2_42c53b10ea"/>
     <path d="
M63.9 -119.7
L63.9 -175.5" id="C0_3_a92bbb51a2"/>
     <path d="
M119.7 -119.7
L119.7 -175.5" id="C0_4_1226226fb7"/>
     <path d="
M119.7 -231.3
L119.7 -175.5" id="C0_5_eb0453b1b8"/>
     <path d="
M63.9 -175.5
L119.7 -175.5" id="C0_6_4fd31d2cef"/>
     <path d="
M119.7 -175.5
L175.5 -175.5" id="C0_7_6cc7fcea6e"/>
     <path d="
M231.3 -63.9
L175.5 -63.9" id="C0_8_b457dde8f7"/>
     <path d="
M63.9 -63.9
L119.7 -63.9" id="C0_9_5e4131e3c4"/>
     <path d="
M63.9 -231.3
L63.9 -175.5" id="C0_a_686fddac25"/>
     <path d="
M175.5 -63.9
L175.5 -119.7" id="C0_b_2048a0f12d"/>
     <path d="
M119.7 -119.7
L175.5 -119.7" id="C0_c_bb0e9d26b8"/>
     <path d="
M175.5 -119.7
L175.5 -175.5" id="C0_d_687a07c3f8"/>
     <path d="
M119.7 -63.9
L119.7 -119.7" id="C0_e_55efd92b62"/>
     <path d="
M119.7 -63.9
L175.5 -63.9" id="C0_f_70ec12b08e"/>
     <path d="
M175.5 -231.3
L175.5 -175.5" id="C0_10_4964d5bb2c"/>
     <path d="
M231.3 -175.5
L175.5 -175.5" id="C0_11_183de7683f"/>
    </defs>
    <g clip-path="url(#p08154cb638)">
     <use style="fill:none;stroke:#000000;" x="0.0" xlink:href="#C0_0_c79e74e1be" y="288.0"/>
    </g>
    <g clip-path="url(#p08154cb638)">
     <use style="fill:none;stroke:#000000;" x="0.0" xlink:href="#C0_1_ecfe47e6db" y="288.0"/>
    </g>
    <g clip-path="url(#p08154cb638)">
     <use style="fill:none;stroke:#000000;" x="0.0" xlink:href="#C0_2_42c53b10ea" y="288.0"/>
    </g>
    <g clip-path="url(#p08154cb638)">
     <use style="fill:none;stroke:#000000;" x="0.0" xlink:href="#C0_3_a92bbb51a2" y="288.0"/>
    </g>
    <g clip-path="url(#p08154cb638)">
     <use style="fill:none;stroke:#000000;" x="0.0" xlink:href="#C0_4_1226226fb7" y="288.0"/>
    </g>
    <g clip-path="url(#p08154cb638)">
     <use style="fill:none;stroke:#000000;" x="0.0" xlink:href="#C0_5_eb0453b1b8" y="288.0"/>
    </g>
    <g clip-path="url(#p08154cb638)">
     <use style="fill:none;stroke:#000000;" x="0.0" xlink:href="#C0_6_4fd31d2cef" y="288.0"/>
    </g>
    <g clip-path="url(#p08154cb638)">
     <use style="fill:none;stroke:#000000;" x="0.0" xlink:href="#C0_7_6cc7fcea6e" y="288.0"/>
    </g>
    <g clip-path="url(#p08154cb638)">
     <use style="fill:none;stroke:#000000;" x="0.0" xlink:href="#C0_8_b457dde8f7" y="288.0"/>
    </g>
    <g clip-path="url(#p08154cb638)">
     <use style="fill:none;stroke:#000000;" x="0.0" xlink:href="#C0_9_5e4131e3c4" y="288.0"/>
    </g>
    <g clip-path="url(#p08154cb638)">
     <use style="fill:none;stroke:#000000;" x="0.0" xlink:href="#C0_a_686fddac25" y="288.0"/>
    </g>
    <g clip-path="url(#p08154cb638)">
     <use style="fill:none;stroke:#000000;" x="0.0" xlink:href="#C0_b_2048a0f12d" y="288.0"/>
    </g>
    <g clip-path="url(#p08154cb638)">
     <use style="fill:none;stroke:#000000;" x="0.0" xlink:href="#C0_c_bb0e9d26b8" y="288.0"/>
    </g>
    <g clip-path="url(#p08154cb638)">
     <use style="fill:none;stroke:#000000;" x="0.0" xlink:href="#C0_d_687a07c3f8" y="288.0"/>
    </g>
    <g clip-path="url(#p08154cb638)">
     <use style="fill:none;stroke:#000000;" x="0.0" xlink:href="#C0_e_55efd92b62" y="288.0"/>
    </g>
    <g clip-path="url(#p08154cb638)">
     <use style="fill:none;stroke:#000000;" x="0.0" xlink:href="#C0_f_70ec12b08e" y="288.0"/>
    </g>
    <g clip-path="url(#p08154cb638)">
     <use style="fill:none;stroke:#000000;" x="0.0" xlink:href="#C0_10_4964d5bb2c" y="288.0"/>
    </g>
    <g clip-path="url(#p08154cb638)">
     <use style="fill:none;stroke:#000000;" x="0.0" xlink:href="#C0_11_183de7683f" y="288.0"/>
    </g>
   </g>
   <g id="PathCollection_1">
    <defs>
     <path d="
M0 22.3607
C5.93012 22.3607 11.6182 20.0046 15.8114 15.8114
C20.0046 11.6182 22.3607 5.93012 22.3607 0
C22.3607 -5.93012 20.0046 -11.6182 15.8114 -15.8114
C11.6182 -20.0046 5.93012 -22.3607 0 -22.3607
C-5.93012 -22.3607 -11.6182 -20.0046 -15.8114 -15.8114
C-20.0046 -11.6182 -22.3607 -5.93012 -22.3607 0
C-22.3607 5.93012 -20.0046 11.6182 -15.8114 15.8114
C-11.6182 20.0046 -5.93012 22.3607 0 22.3607
z
" id="C1_0_951c8c0c4f"/>
    </defs>
    <g clip-path="url(#p08154cb638)">
     <use style="fill:#ffffff;stroke:#000000;" x="63.9" xlink:href="#C1_0_951c8c0c4f" y="168.3"/>
    </g>
    <g clip-path="url(#p08154cb638)">
     <use style="fill:#ffffff;stroke:#000000;" x="119.7" xlink:href="#C1_0_951c8c0c4f" y="112.5"/>
    </g>
    <g clip-path="url(#p08154cb638)">
     <use style="fill:#ffffff;stroke:#000000;" x="63.9" xlink:href="#C1_0_951c8c0c4f" y="224.1"/>
    </g>
    <g clip-path="url(#p08154cb638)">
     <use style="fill:#ffffff;stroke:#000000;" x="175.5" xlink:href="#C1_0_951c8c0c4f" y="168.3"/>
    </g>
    <g clip-path="url(#p08154cb638)">
     <use style="fill:#ffffff;stroke:#000000;" x="119.7" xlink:href="#C1_0_951c8c0c4f" y="168.3"/>
    </g>
    <g clip-path="url(#p08154cb638)">
     <use style="fill:#ffffff;stroke:#000000;" x="175.5" xlink:href="#C1_0_951c8c0c4f" y="224.1"/>
    </g>
    <g clip-path="url(#p08154cb638)">
     <use style="fill:#ffffff;stroke:#000000;" x="175.5" xlink:href="#C1_0_951c8c0c4f" y="112.5"/>
    </g>
    <g clip-path="url(#p08154cb638)">
     <use style="fill:#ffffff;stroke:#000000;" x="119.7" xlink:href="#C1_0_951c8c0c4f" y="224.1"/>
    </g>
    <g clip-path="url(#p08154cb638)">
     <use style="fill:#ffffff;stroke:#000000;" x="63.9" xlink:href="#C1_0_951c8c0c4f" y="112.5"/>
    </g>
   </g>
   <g id="text_1">
    <g clip-path="url(#p08154cb638)">
     <!-- (0, 1) -->
     <defs>
      <path d="
M11.7188 12.4062
L22.0156 12.4062
L22.0156 4
L14.0156 -11.625
L7.71875 -11.625
L11.7188 4
z
" id="DejaVuSans-2c"/>
      <path d="
M12.4062 8.29688
L28.5156 8.29688
L28.5156 63.9219
L10.9844 60.4062
L10.9844 69.3906
L28.4219 72.9062
L38.2812 72.9062
L38.2812 8.29688
L54.3906 8.29688
L54.3906 0
L12.4062 0
z
" id="DejaVuSans-31"/>
      <path d="
M31.7812 66.4062
Q24.1719 66.4062 20.3281 58.9062
Q16.5 51.4219 16.5 36.375
Q16.5 21.3906 20.3281 13.8906
Q24.1719 6.39062 31.7812 6.39062
Q39.4531 6.39062 43.2812 13.8906
Q47.125 21.3906 47.125 36.375
Q47.125 51.4219 43.2812 58.9062
Q39.4531 66.4062 31.7812 66.4062
M31.7812 74.2188
Q44.0469 74.2188 50.5156 64.5156
Q56.9844 54.8281 56.9844 36.375
Q56.9844 17.9688 50.5156 8.26562
Q44.0469 -1.42188 31.7812 -1.42188
Q19.5312 -1.42188 13.0625 8.26562
Q6.59375 17.9688 6.59375 36.375
Q6.59375 54.8281 13.0625 64.5156
Q19.5312 74.2188 31.7812 74.2188" id="DejaVuSans-30"/>
      <path id="DejaVuSans-20"/>
      <path d="
M31 75.875
Q24.4688 64.6562 21.2812 53.6562
Q18.1094 42.6719 18.1094 31.3906
Q18.1094 20.125 21.3125 9.0625
Q24.5156 -2 31 -13.1875
L23.1875 -13.1875
Q15.875 -1.70312 12.2344 9.375
Q8.59375 20.4531 8.59375 31.3906
Q8.59375 42.2812 12.2031 53.3125
Q15.8281 64.3594 23.1875 75.875
z
" id="DejaVuSans-28"/>
      <path d="
M8.01562 75.875
L15.8281 75.875
Q23.1406 64.3594 26.7812 53.3125
Q30.4219 42.2812 30.4219 31.3906
Q30.4219 20.4531 26.7812 9.375
Q23.1406 -1.70312 15.8281 -13.1875
L8.01562 -13.1875
Q14.5 -2 17.7031 9.0625
Q20.9062 20.125 20.9062 31.3906
Q20.9062 42.6719 17.7031 53.6562
Q14.5 64.6562 8.01562 75.875" id="DejaVuSans-29"/>
     </defs>
     <g transform="translate(48.285 171.61125)scale(0.12 -0.12)">
      <use xlink:href="#DejaVuSans-28"/>
      <use x="39.013671875" xlink:href="#DejaVuSans-30"/>
      <use x="102.63671875" xlink:href="#DejaVuSans-2c"/>
      <use x="134.423828125" xlink:href="#DejaVuSans-20"/>
      <use x="166.2109375" xlink:href="#DejaVuSans-31"/>
      <use x="229.833984375" xlink:href="#DejaVuSans-29"/>
     </g>
    </g>
   </g>
   <g id="text_2">
    <g clip-path="url(#p08154cb638)">
     <!-- (1, 2) -->
     <defs>
      <path d="
M19.1875 8.29688
L53.6094 8.29688
L53.6094 0
L7.32812 0
L7.32812 8.29688
Q12.9375 14.1094 22.625 23.8906
Q32.3281 33.6875 34.8125 36.5312
Q39.5469 41.8438 41.4219 45.5312
Q43.3125 49.2188 43.3125 52.7812
Q43.3125 58.5938 39.2344 62.25
Q35.1562 65.9219 28.6094 65.9219
Q23.9688 65.9219 18.8125 64.3125
Q13.6719 62.7031 7.8125 59.4219
L7.8125 69.3906
Q13.7656 71.7812 18.9375 73
Q24.125 74.2188 28.4219 74.2188
Q39.75 74.2188 46.4844 68.5469
Q53.2188 62.8906 53.2188 53.4219
Q53.2188 48.9219 51.5312 44.8906
Q49.8594 40.875 45.4062 35.4062
Q44.1875 33.9844 37.6406 27.2188
Q31.1094 20.4531 19.1875 8.29688" id="DejaVuSans-32"/>
     </defs>
     <g transform="translate(104.085 115.81125)scale(0.12 -0.12)">
      <use xlink:href="#DejaVuSans-28"/>
      <use x="39.013671875" xlink:href="#DejaVuSans-31"/>
      <use x="102.63671875" xlink:href="#DejaVuSans-2c"/>
      <use x="134.423828125" xlink:href="#DejaVuSans-20"/>
      <use x="166.2109375" xlink:href="#DejaVuSans-32"/>
      <use x="229.833984375" xlink:href="#DejaVuSans-29"/>
     </g>
    </g>
   </g>
   <g id="text_3">
    <g clip-path="url(#p08154cb638)">
     <!-- (0, 0) -->
     <g transform="translate(48.285 227.41125)scale(0.12 -0.12)">
      <use xlink:href="#DejaVuSans-28"/>
      <use x="39.013671875" xlink:href="#DejaVuSans-30"/>
      <use x="102.63671875" xlink:href="#DejaVuSans-2c"/>
      <use x="134.423828125" xlink:href="#DejaVuSans-20"/>
      <use x="166.2109375" xlink:href="#DejaVuSans-30"/>
      <use x="229.833984375" xlink:href="#DejaVuSans-29"/>
     </g>
    </g>
   </g>
   <g id="text_4">
    <g clip-path="url(#p08154cb638)">
     <!-- (2, 1) -->
     <g transform="translate(159.885 171.61125)scale(0.12 -0.12)">
      <use xlink:href="#DejaVuSans-28"/>
      <use x="39.013671875" xlink:href="#DejaVuSans-32"/>
      <use x="102.63671875" xlink:href="#DejaVuSans-2c"/>
      <use x="134.423828125" xlink:href="#DejaVuSans-20"/>
      <use x="166.2109375" xlink:href="#DejaVuSans-31"/>
      <use x="229.833984375" xlink:href="#DejaVuSans-29"/>
     </g>
    </g>
   </g>
   <g id="text_5">
    <g clip-path="url(#p08154cb638)">
     <!-- (0, 2) -->
     <g transform="translate(48.285 115.81125)scale(0.12 -0.12)">
      <use xlink:href="#DejaVuSans-28"/>
      <use x="39.013671875" xlink:href="#DejaVuSans-30"/>
      <use x="102.63671875" xlink:href="#DejaVuSans-2c"/>
      <use x="134.423828125" xlink:href="#DejaVuSans-20"/>
      <use x="166.2109375" xlink:href="#DejaVuSans-32"/>
      <use x="229.833984375" xlink:href="#DejaVuSans-29"/>
     </g>
    </g>
   </g>
   <g id="text_6">
    <g clip-path="url(#p08154cb638)">
     <!-- (2, 0) -->
     <g transform="translate(159.885 227.41125)scale(0.12 -0.12)">
      <use xlink:href="#DejaVuSans-28"/>
      <use x="39.013671875" xlink:href="#DejaVuSans-32"/>
      <use x="102.63671875" xlink:href="#DejaVuSans-2c"/>
      <use x="134.423828125" xlink:href="#DejaVuSans-20"/>
      <use x="166.2109375" xlink:href="#DejaVuSans-30"/>
      <use x="229.833984375" xlink:href="#DejaVuSans-29"/>
     </g>
    </g>
   </g>
   <g id="text_7">
    <g clip-path="url(#p08154cb638)">
     <!-- (2, 2) -->
     <g transform="translate(159.885 115.81125)scale(0.12 -0.12)">
      <use xlink:href="#DejaVuSans-28"/>
      <use x="39.013671875" xlink:href="#DejaVuSans-32"/>
      <use x="102.63671875" xlink:href="#DejaVuSans-2c"/>
      <use x="134.423828125" xlink:href="#DejaVuSans-20"/>
      <use x="166.2109375" xlink:href="#DejaVuSans-32"/>
      <use x="229.833984375" xlink:href="#DejaVuSans-29"/>
     </g>
    </g>
   </g>
   <g id="text_8">
    <g clip-path="url(#p08154cb638)">
     <!-- (1, 0) -->
     <g transform="translate(104.085 227.41125)scale(0.12 -0.12)">
      <use xlink:href="#DejaVuSans-28"/>
      <use x="39.013671875" xlink:href="#DejaVuSans-31"/>
      <use x="102.63671875" xlink:href="#DejaVuSans-2c"/>
      <use x="134.423828125" xlink:href="#DejaVuSans-20"/>
      <use x="166.2109375" xlink:href="#DejaVuSans-30"/>
      <use x="229.833984375" xlink:href="#DejaVuSans-29"/>
     </g>
    </g>
   </g>
   <g id="text_9">
    <g clip-path="url(#p08154cb638)">
     <!-- (1, 1) -->
     <g transform="translate(104.085 171.61125)scale(0.12 -0.12)">
      <use xlink:href="#DejaVuSans-28"/>
      <use x="39.013671875" xlink:href="#DejaVuSans-31"/>
      <use x="102.63671875" xlink:href="#DejaVuSans-2c"/>
      <use x="134.423828125" xlink:href="#DejaVuSans-20"/>
      <use x="166.2109375" xlink:href="#DejaVuSans-31"/>
      <use x="229.833984375" xlink:href="#DejaVuSans-29"/>
     </g>
    </g>
   </g>
  </g>
 </g>
 <defs>
  <clipPath id="p08154cb638">
   <rect height="223.2" width="223.2" x="36.0" y="28.8"/>
  </clipPath>
 </defs>
</svg>
